<?xml version="1.0" encoding="UTF-8" standalone="no"?>
<!-- Created with Inkscape (http://www.inkscape.org/) -->

<svg
   xmlns:dc="http://purl.org/dc/elements/1.1/"
   xmlns:cc="http://creativecommons.org/ns#"
   xmlns:rdf="http://www.w3.org/1999/02/22-rdf-syntax-ns#"
   xmlns:svg="http://www.w3.org/2000/svg"
   xmlns="http://www.w3.org/2000/svg"
   xmlns:sodipodi="http://sodipodi.sourceforge.net/DTD/sodipodi-0.dtd"
   xmlns:inkscape="http://www.inkscape.org/namespaces/inkscape"
   width="300.20001"
   height="262.90689"
   viewBox="0 0 79.427918 69.560784"
   version="1.1"
   id="svg8"
   inkscape:version="0.92.4 (5da689c313, 2019-01-14)"
   sodipodi:docname="Android logo 2019.svg">
  <title
     id="title1080">Android logo 2019</title>
  <defs
     id="defs2" />
  <sodipodi:namedview
     id="base"
     pagecolor="#ffffff"
     bordercolor="#666666"
     borderopacity="1.0"
     inkscape:pageopacity="0.0"
     inkscape:pageshadow="2"
     inkscape:zoom="0.98994949"
     inkscape:cx="163.90056"
     inkscape:cy="136.69087"
     inkscape:document-units="mm"
     inkscape:current-layer="layer1"
     showgrid="false"
     inkscape:snap-object-midpoints="false"
     showguides="true"
     inkscape:guide-bbox="true"
     inkscape:snap-smooth-nodes="false"
     inkscape:object-paths="false"
     inkscape:snap-intersection-paths="false"
     inkscape:snap-to-guides="true"
     inkscape:object-nodes="true"
     inkscape:window-width="1366"
     inkscape:window-height="705"
     inkscape:window-x="-8"
     inkscape:window-y="-8"
     inkscape:window-maximized="1"
     fit-margin-left="0.1"
     fit-margin-top="0.1"
     fit-margin-bottom="0.1"
     fit-margin-right="0.1"
     units="px" />
  <metadata
     id="metadata5">
    <rdf:RDF>
      <cc:Work
         rdf:about="">
        <dc:format>image/svg+xml</dc:format>
        <dc:type
           rdf:resource="http://purl.org/dc/dcmitype/StillImage" />
        <dc:title>Android logo 2019</dc:title>
        <dc:date>22/08/2019</dc:date>
        <dc:creator>
          <cc:Agent>
            <dc:title>Android</dc:title>
          </cc:Agent>
        </dc:creator>
        <dc:publisher>
          <cc:Agent>
            <dc:title>CMetalCore</dc:title>
          </cc:Agent>
        </dc:publisher>
        <dc:source>https://cdn.vox-cdn.com/thumbor/V1lOFhoifgorg5qOnR8sPXyYvQ0=/0x0:2040x1560/1200x800/filters:focal(857x617:1183x943)/cdn.vox-cdn.com/uploads/chorus_image/image/65088839/Android_logo_stacked__RGB_.5.jpg</dc:source>
        <cc:license
           rdf:resource="http://creativecommons.org/licenses/by-sa/4.0/" />
      </cc:Work>
      <cc:License
         rdf:about="http://creativecommons.org/licenses/by-sa/4.0/">
        <cc:permits
           rdf:resource="http://creativecommons.org/ns#Reproduction" />
        <cc:permits
           rdf:resource="http://creativecommons.org/ns#Distribution" />
        <cc:requires
           rdf:resource="http://creativecommons.org/ns#Notice" />
        <cc:requires
           rdf:resource="http://creativecommons.org/ns#Attribution" />
        <cc:permits
           rdf:resource="http://creativecommons.org/ns#DerivativeWorks" />
        <cc:requires
           rdf:resource="http://creativecommons.org/ns#ShareAlike" />
      </cc:License>
    </rdf:RDF>
  </metadata>
  <g
     inkscape:label="Capa 1"
     inkscape:groupmode="layer"
     id="layer1"
     transform="translate(-38.331636,-227.46568)">
    <g
       id="g1078"
       transform="matrix(1.2525586,0,0,1.2525586,-204.74384,0.95587343)">
      <path
         inkscape:connector-curvature="0"
         id="path870"
         d="m 205.91658,180.85923 c -0.18267,0.005 -0.36721,0.0544 -0.53719,0.15254 -0.54393,0.31405 -0.72897,1.00449 -0.41493,1.54842 l 5.21237,9.02814 c -10.08474,5.42663 -15.41661,15.65198 -16.09255,24.99624 h 31.68514 31.68515 c -0.67594,-9.34426 -6.00782,-19.56961 -16.09256,-24.99624 l 5.21238,-9.02814 c 0.31403,-0.54393 0.12899,-1.23437 -0.41494,-1.54842 -0.16998,-0.0982 -0.35451,-0.1476 -0.53718,-0.15254 -0.40188,-0.0109 -0.7957,0.19352 -1.0116,0.56748 l -5.28901,9.16024 c -3.88841,-1.73383 -8.40336,-2.78727 -13.55224,-2.88482 -5.14888,0.0975 -9.66382,1.15099 -13.55223,2.88482 l -5.28901,-9.16024 c -0.21591,-0.37396 -0.60972,-0.57834 -1.0116,-0.56748 z m 5.27222,21.38995 a 2.6531686,2.6531686 0 0 1 2.65308,2.65308 2.6531686,2.6531686 0 0 1 -2.65308,2.65308 2.6531686,2.6531686 0 0 1 -2.65345,-2.65308 2.6531686,2.6531686 0 0 1 2.65345,-2.65308 z m 29.16125,0 a 2.6531686,2.6531686 0 0 1 2.65344,2.65308 2.6531686,2.6531686 0 0 1 -2.65344,2.65308 2.6531686,2.6531686 0 0 1 -2.65308,-2.65308 2.6531686,2.6531686 0 0 1 2.65308,-2.65308 z"
         style="opacity:1;fill:#3fda86;fill-opacity:1;stroke:none;stroke-width:0.18684687px;stroke-linecap:butt;stroke-linejoin:miter;stroke-opacity:1" />
      <path
         sodipodi:nodetypes="cccccccccccsccccccccccsccccccccscccssccscccccscccccccccccccccscccccccssccccccccccccccccccccccc"
         inkscape:connector-curvature="0"
         id="path997"
         d="m 245.42998,222.34303 c -0.74379,-8e-5 -1.34677,0.6029 -1.34669,1.34669 2e-4,0.74359 0.6031,1.34626 1.34669,1.34617 0.74338,-2e-4 1.34597,-0.60278 1.34617,-1.34617 8e-5,-0.74358 -0.60258,-1.34648 -1.34617,-1.34669 z m -22.37486,0.11163 v 5.73918 c -0.81398,-0.85164 -1.90057,-1.32854 -3.03186,-1.33067 -2.41721,4e-5 -4.37667,2.12424 -4.37648,4.74442 7e-5,2.61997 1.95946,4.74385 4.37648,4.74389 1.13056,-5.3e-4 2.21705,-0.47542 3.03186,-1.32498 v 0.70228 c 0,0.26175 0.21057,0.47233 0.47232,0.47232 h 1.49293 v -13.74644 z m 32.43419,0 v 5.73918 c -0.81397,-0.85164 -1.90056,-1.32854 -3.03186,-1.33067 -2.4172,4e-5 -4.37666,2.12424 -4.37647,4.74442 7e-5,2.61997 1.95945,4.74385 4.37647,4.74389 1.13057,-5.3e-4 2.21706,-0.47542 3.03186,-1.32498 v 0.70228 c 0,0.26175 0.21057,0.47233 0.47232,0.47232 h 1.49294 v -13.74644 z m -44.93007,4.36975 c -0.94781,0.0205 -1.94833,0.42999 -2.8112,1.30277 v -1.11311 h -1.96525 v 8.71471 c 0,0.26175 0.21058,0.47232 0.47232,0.47232 h 1.49293 v -5.23224 c 0,-2.43015 4.34909,-3.54109 4.34909,-0.447 v 5.20692 c 0,0.26175 0.21057,0.47233 0.47232,0.47232 h 1.49293 v -5.67924 c 0,-2.30215 -1.64863,-3.73764 -3.50314,-3.69745 z m -12.09849,0.0388 c -2.41721,4e-5 -4.37667,2.12424 -4.37647,4.74442 7e-5,2.61997 1.95945,4.74385 4.37647,4.74389 1.12133,-0.001 2.19955,-0.46836 3.01222,-1.30586 v 0.68316 c 0,0.26175 0.21057,0.47233 0.47232,0.47232 h 1.49294 v -9.18703 h -1.96526 v 1.15962 c -0.81199,-0.8392 -1.8903,-1.30834 -3.01222,-1.31052 z m 39.52265,0 c -2.67257,-2.4e-4 -4.83919,2.12404 -4.83898,4.74442 8e-5,2.62017 2.16662,4.74414 4.83898,4.74389 2.67217,-3e-5 4.83839,-2.12392 4.83847,-4.74389 2.1e-4,-2.62019 -2.1661,-4.74438 -4.83847,-4.74442 z m -6.12314,0.0744 c -1.4461,0.0113 -2.2228,0.88881 -2.55126,1.66863 v -1.59215 h -1.96526 v 8.71471 c 0,0.26175 0.21058,0.47232 0.47233,0.47232 h 1.49293 v -5.03638 c 0,-2.15705 2.04908,-2.47795 3.21272,-2.07481 v -2.10116 c -0.23467,-0.0366 -0.45478,-0.0528 -0.66146,-0.0512 z m 12.58683,0.0765 v 8.71471 c 0,0.26175 0.21058,0.47232 0.47232,0.47232 h 1.49294 v -9.18703 z m -45.53779,1.59318 c 1.56431,-1.2e-4 2.83247,1.34323 2.83239,3.00034 -1.9e-4,1.6569 -1.26827,2.99994 -2.83239,2.99981 -1.56391,-1.8e-4 -2.83167,-1.34313 -2.83186,-2.99981 -8e-5,-1.65689 1.26776,-3.00016 2.83186,-3.00034 z m 21.56251,0 c 1.56431,-1.2e-4 2.83246,1.34323 2.83239,3.00034 -2e-4,1.6569 -1.26827,2.99994 -2.83239,2.99981 -1.56391,-1.8e-4 -2.83167,-1.34313 -2.83187,-2.99981 -7e-5,-1.65689 1.26777,-3.00016 2.83187,-3.00034 z m 17.53382,0 c 1.5643,-1.2e-4 2.83246,1.34323 2.83238,3.00034 -1.9e-4,1.6569 -1.26827,2.99994 -2.83238,2.99981 -1.56392,-1.8e-4 -2.83168,-1.34313 -2.83187,-2.99981 -8e-5,-1.65689 1.26776,-3.00016 2.83187,-3.00034 z m 14.90038,0 c 1.5643,-1.2e-4 2.83246,1.34323 2.83238,3.00034 -1.9e-4,1.6569 -1.26827,2.99994 -2.83238,2.99981 -1.56391,-1.8e-4 -2.83168,-1.34313 -2.83187,-2.99981 -8e-5,-1.65689 1.26776,-3.00016 2.83187,-3.00034 z"
         style="opacity:1;fill:#000000;fill-opacity:1;stroke:none;stroke-width:0.40222895" />
    </g>
  </g>
</svg>
